<svg id="svg" version="1.1" xmlns="http://www.w3.org/2000/svg" xmlns:xlink="http://www.w3.org/1999/xlink" width="400" height="332.5" viewBox="0, 0, 400,332.5"><g id="svgg"><path id="path0" d="M149.306 91.993 C 148.125 92.073,147.002 92.262,146.812 92.413 C 146.623 92.564,145.457 92.792,144.223 92.920 C 142.988 93.049,141.978 93.277,141.978 93.428 C 141.978 93.580,141.230 93.806,140.316 93.932 C 139.401 94.058,138.653 94.289,138.653 94.447 C 138.653 94.604,138.130 94.831,137.490 94.951 C 136.850 95.071,136.326 95.286,136.326 95.429 C 136.326 95.572,135.952 95.782,135.495 95.897 C 135.037 96.012,134.663 96.241,134.663 96.406 C 134.663 96.570,134.227 96.801,133.694 96.918 C 133.160 97.035,132.641 97.347,132.540 97.610 C 132.439 97.873,132.188 98.088,131.981 98.088 C 131.555 98.088,123.691 105.931,123.691 106.355 C 123.691 106.506,123.392 106.901,123.026 107.232 C 122.660 107.563,122.361 107.966,122.361 108.129 C 122.361 108.291,122.208 108.604,122.022 108.825 C 120.677 110.420,120.366 110.875,120.366 111.245 C 120.366 111.476,120.254 111.715,120.116 111.776 C 119.799 111.917,118.371 114.827,118.371 115.332 C 118.371 115.540,118.221 115.711,118.038 115.711 C 117.855 115.711,117.705 115.973,117.704 116.293 C 117.703 116.613,117.493 117.274,117.239 117.762 C 116.984 118.250,116.669 119.297,116.538 120.089 C 116.407 120.881,116.185 121.679,116.044 121.862 C 114.579 123.757,114.966 136.285,116.705 143.268 C 120.651 159.122,131.732 169.931,149.127 174.897 C 158.030 177.439,164.305 178.493,176.891 179.560 C 187.353 180.447,223.054 180.216,231.588 179.206 C 239.295 178.294,242.267 177.839,245.719 177.044 C 268.150 171.880,278.597 160.514,281.454 138.168 C 282.240 132.016,282.000 123.631,280.981 121.683 C 280.834 121.402,280.608 120.542,280.478 119.773 C 280.348 119.004,280.105 118.290,279.938 118.187 C 279.771 118.083,279.634 117.760,279.634 117.467 C 279.634 116.856,277.266 111.943,276.891 111.776 C 276.754 111.715,276.642 111.461,276.642 111.212 C 276.642 110.962,275.894 109.770,274.979 108.562 C 274.065 107.354,273.317 106.298,273.317 106.216 C 273.317 105.855,265.428 98.088,265.061 98.088 C 264.835 98.088,264.570 97.877,264.471 97.619 C 264.372 97.362,263.928 97.059,263.484 96.948 C 263.040 96.837,262.677 96.611,262.677 96.446 C 262.677 96.281,262.228 96.047,261.679 95.927 C 261.131 95.806,260.682 95.577,260.682 95.417 C 260.682 95.257,260.158 95.027,259.518 94.907 C 258.878 94.787,258.354 94.565,258.354 94.414 C 258.354 94.263,257.681 94.038,256.858 93.914 C 256.035 93.791,255.362 93.569,255.362 93.422 C 255.362 93.274,254.352 93.047,253.117 92.917 C 251.883 92.786,250.766 92.513,250.635 92.308 C 250.304 91.791,224.008 91.828,223.382 92.346 C 223.112 92.571,219.968 92.804,215.202 92.954 C 210.945 93.087,207.382 93.325,207.285 93.481 C 207.054 93.855,189.526 93.852,189.526 93.478 C 189.526 93.320,185.898 93.081,181.463 92.946 C 177.028 92.811,173.318 92.570,173.218 92.409 C 173.025 92.097,152.921 91.748,149.306 91.993 M157.853 107.128 C 169.452 111.444,174.412 131.651,167.378 145.936 C 160.203 160.511,144.545 159.405,138.330 143.884 C 130.612 124.608,142.859 101.549,157.853 107.128 M250.859 106.955 C 261.873 110.821,267.389 129.600,261.691 143.832 C 255.503 159.285,240.153 160.596,232.789 146.301 C 223.095 127.483,235.068 101.413,250.859 106.955 M152.120 115.107 C 150.376 115.764,148.741 116.956,147.559 118.433 C 146.126 120.225,144.842 122.343,145.059 122.560 C 145.149 122.650,145.671 121.929,146.220 120.957 C 150.543 113.296,159.099 113.121,163.484 120.603 C 163.953 121.404,164.418 121.977,164.518 121.877 C 164.776 121.619,162.436 118.305,161.249 117.247 C 158.817 115.080,154.733 114.123,152.120 115.107 M241.269 115.512 C 238.897 116.700,234.865 120.928,235.499 121.562 C 235.589 121.652,236.054 121.058,236.532 120.242 C 240.533 113.417,248.186 113.397,253.339 120.200 L 254.095 121.197 253.431 120.063 C 250.778 115.535,245.307 113.488,241.269 115.512 M149.377 120.927 C 149.697 121.011,150.220 121.011,150.540 120.927 C 150.860 120.844,150.599 120.775,149.958 120.775 C 149.318 120.775,149.057 120.844,149.377 120.927 M147.647 121.616 C 147.153 122.016,146.881 122.675,146.790 123.694 C 146.658 125.157,146.661 125.162,146.926 123.933 C 147.074 123.243,147.544 122.308,147.970 121.855 C 148.869 120.898,148.693 120.769,147.647 121.616 M152.074 121.907 C 153.147 122.980,153.307 125.261,152.368 126.110 C 150.813 127.518,149.053 127.468,147.663 125.976 C 147.280 125.565,146.966 125.395,146.966 125.599 C 146.966 126.913,149.822 127.935,151.401 127.185 C 153.883 126.008,153.982 121.031,151.524 121.031 C 151.345 121.031,151.592 121.425,152.074 121.907 M239.620 121.407 C 237.443 122.672,238.285 127.061,240.693 127.003 C 240.989 126.996,240.766 126.788,240.199 126.541 C 238.088 125.622,238.098 122.508,240.214 121.703 C 243.393 120.494,245.505 124.609,242.612 126.374 C 242.035 126.725,241.787 127.009,242.062 127.004 C 243.389 126.979,244.571 124.945,244.211 123.305 C 243.810 121.477,241.291 120.436,239.620 121.407 M254.209 121.945 C 254.346 122.265,254.813 123.425,255.248 124.522 C 255.756 125.806,255.964 126.120,255.832 125.402 C 255.602 124.158,254.436 121.363,254.147 121.363 C 254.044 121.363,254.072 121.625,254.209 121.945 M234.925 122.341 C 234.428 123.144,233.420 126.880,233.449 127.807 C 233.472 128.544,233.604 128.267,233.903 126.850 C 234.135 125.752,234.563 124.219,234.854 123.441 C 235.344 122.129,235.378 121.608,234.925 122.341 M164.758 123.026 C 165.154 124.377,165.662 125.017,165.417 123.857 C 165.301 123.308,165.051 122.710,164.860 122.527 C 164.622 122.298,164.590 122.453,164.758 123.026 M144.545 123.253 C 144.272 123.714,143.910 125.686,144.098 125.686 C 144.317 125.686,145.000 123.276,144.829 123.105 C 144.761 123.037,144.633 123.104,144.545 123.253 M165.622 125.187 C 165.631 125.370,165.849 126.567,166.107 127.847 L 166.576 130.175 166.416 128.071 C 166.292 126.436,165.553 123.750,165.622 125.187 M143.436 127.099 C 143.080 128.167,143.131 135.736,143.499 136.394 C 143.698 136.750,143.807 135.071,143.807 131.648 C 143.807 125.952,143.809 125.980,143.436 127.099 M256.193 131.485 C 256.193 133.929,256.303 135.757,256.437 135.546 C 256.742 135.067,256.726 128.385,256.419 127.610 C 256.295 127.297,256.193 129.040,256.193 131.485 M233.200 131.671 C 233.200 133.225,233.257 133.861,233.327 133.084 C 233.397 132.307,233.397 131.035,233.327 130.258 C 233.257 129.480,233.200 130.116,233.200 131.671 M166.112 134.990 C 165.878 137.055,165.056 139.778,164.118 141.592 C 163.405 142.970,163.678 142.949,164.493 141.563 C 165.430 139.967,166.301 137.083,166.500 134.913 C 166.733 132.378,166.400 132.445,166.112 134.990 M233.450 135.576 C 233.394 137.368,234.671 140.711,236.487 143.530 C 238.840 147.182,243.862 149.504,246.866 148.328 C 247.255 148.176,246.524 148.073,245.037 148.071 C 239.783 148.066,235.479 143.623,233.948 136.623 C 233.606 135.059,233.474 134.782,233.450 135.576 M255.548 137.573 C 255.428 138.076,255.245 138.786,255.142 139.152 C 255.014 139.606,255.064 139.711,255.298 139.485 C 255.662 139.133,256.218 136.658,255.933 136.658 C 255.841 136.658,255.668 137.070,255.548 137.573 M144.115 138.221 C 144.321 139.529,146.292 143.641,146.713 143.641 C 146.882 143.641,146.680 143.091,146.265 142.420 C 145.850 141.748,145.159 140.289,144.729 139.178 C 144.239 137.911,144.010 137.554,144.115 138.221 M253.799 141.945 C 252.583 144.140,250.446 146.402,248.731 147.309 C 248.080 147.653,247.706 147.941,247.898 147.949 C 249.303 148.008,252.911 144.533,254.371 141.715 C 255.486 139.563,255.013 139.754,253.799 141.945 M162.050 144.602 C 158.093 149.068,152.694 149.297,148.329 145.186 C 147.491 144.396,147.128 144.172,147.481 144.660 C 149.798 147.872,154.175 149.313,157.767 148.048 C 159.330 147.498,164.010 143.610,163.591 143.210 C 163.500 143.122,162.806 143.749,162.050 144.602 M200.862 149.808 C 203.860 151.358,203.841 155.706,200.829 157.321 C 197.831 158.929,194.514 156.972,194.514 153.597 C 194.514 150.285,197.889 148.271,200.862 149.808 M190.546 162.938 C 190.900 163.127,191.392 163.763,191.639 164.351 C 194.181 170.399,202.704 170.288,205.973 164.166 C 207.469 161.365,209.585 162.758,208.345 165.726 C 206.433 170.301,199.658 173.012,195.020 171.059 C 190.874 169.312,187.518 164.927,189.040 163.245 C 189.727 162.486,189.708 162.490,190.546 162.938 " stroke="none" fill="#f4cab1" fill-rule="evenodd"></path><path id="path1" d="M105.734 6.856 C 105.732 7.200,105.514 7.899,105.247 8.410 C 104.981 8.920,104.666 9.857,104.547 10.492 C 104.428 11.126,104.202 11.724,104.045 11.821 C 103.888 11.918,103.662 12.739,103.541 13.646 C 103.421 14.553,103.207 15.295,103.065 15.295 C 102.924 15.295,102.704 16.193,102.577 17.290 C 102.450 18.387,102.224 19.285,102.077 19.285 C 101.929 19.285,101.701 20.707,101.571 22.444 C 101.441 24.181,101.202 25.603,101.041 25.603 C 100.643 25.603,100.666 40.757,101.065 41.484 C 101.240 41.802,101.477 43.221,101.592 44.638 C 101.708 46.056,101.922 47.215,102.068 47.215 C 102.214 47.215,102.437 48.038,102.563 49.044 C 102.688 50.050,102.911 50.873,103.057 50.873 C 104.054 50.873,103.717 53.655,102.587 54.752 C 101.941 55.379,101.407 56.072,101.399 56.292 C 101.391 56.512,100.942 57.059,100.402 57.507 C 99.861 57.956,99.418 58.505,99.418 58.726 C 99.418 58.948,99.305 59.180,99.166 59.241 C 98.829 59.389,96.758 62.047,96.758 62.332 C 96.758 62.456,96.347 63.185,95.844 63.952 C 94.343 66.243,94.183 66.529,92.480 69.992 C 91.580 71.820,90.590 74.065,90.280 74.979 C 89.970 75.894,89.599 76.871,89.456 77.151 C 89.312 77.432,89.084 78.180,88.948 78.814 C 88.812 79.448,88.583 80.116,88.438 80.299 C 88.294 80.482,88.068 81.380,87.936 82.294 C 87.804 83.209,87.573 84.113,87.422 84.304 C 87.272 84.495,87.046 85.692,86.921 86.964 C 86.796 88.236,86.527 89.487,86.323 89.744 C 85.809 90.390,85.812 116.309,86.326 116.642 C 86.524 116.770,86.792 118.441,86.921 120.356 C 87.050 122.271,87.277 123.992,87.424 124.180 C 87.571 124.368,87.794 125.563,87.918 126.835 C 88.043 128.107,88.274 129.304,88.430 129.495 C 88.586 129.686,88.820 130.702,88.951 131.754 C 89.081 132.805,89.320 133.666,89.481 133.666 C 89.643 133.666,89.776 134.045,89.776 134.508 C 89.776 134.971,90.000 135.887,90.274 136.543 C 91.220 138.806,92.227 138.653,76.309 138.653 C 68.354 138.653,61.845 138.780,61.845 138.935 C 61.845 139.090,58.071 139.323,53.457 139.454 C 48.843 139.584,44.990 139.811,44.895 139.957 C 44.800 140.103,42.553 140.331,39.903 140.463 C 37.253 140.595,35.008 140.821,34.915 140.966 C 34.822 141.110,33.101 141.338,31.089 141.471 C 29.077 141.605,27.282 141.829,27.099 141.969 C 26.916 142.109,25.422 142.329,23.779 142.457 C 22.137 142.586,20.640 142.812,20.454 142.960 C 20.269 143.108,18.958 143.334,17.542 143.463 C 16.126 143.592,14.882 143.834,14.779 144.002 C 14.675 144.169,14.076 144.306,13.447 144.306 C 12.353 144.306,12.303 144.359,12.303 145.516 L 12.303 146.725 14.873 146.492 C 16.286 146.364,17.521 146.135,17.616 145.983 C 17.711 145.831,19.098 145.599,20.698 145.466 C 22.298 145.333,23.608 145.111,23.608 144.971 C 23.608 144.832,25.179 144.611,27.099 144.480 C 29.019 144.349,30.590 144.120,30.590 143.972 C 30.590 143.823,32.535 143.594,34.913 143.462 C 37.290 143.331,39.235 143.109,39.235 142.969 C 39.235 142.829,41.741 142.617,44.805 142.499 C 47.868 142.380,50.668 142.118,51.027 141.917 C 51.473 141.667,58.093 141.498,71.892 141.384 L 92.103 141.218 92.103 141.903 C 92.103 142.280,92.217 142.638,92.356 142.699 C 92.495 142.760,92.997 143.798,93.471 145.005 L 94.333 147.201 90.142 147.414 C 87.837 147.532,84.651 147.629,83.062 147.630 C 81.473 147.630,80.093 147.759,79.996 147.915 C 79.900 148.072,77.316 148.308,74.254 148.440 C 71.192 148.572,68.457 148.800,68.176 148.946 C 67.894 149.092,65.794 149.319,63.508 149.452 C 61.222 149.584,59.202 149.790,59.019 149.908 C 58.836 150.027,57.116 150.306,55.195 150.528 C 49.376 151.200,45.405 151.776,45.054 151.999 C 44.871 152.115,43.487 152.318,41.978 152.449 C 40.470 152.580,39.235 152.800,39.235 152.938 C 39.235 153.075,38.162 153.288,36.849 153.410 C 35.537 153.532,34.303 153.758,34.106 153.913 C 33.910 154.068,32.797 154.298,31.633 154.425 C 30.469 154.551,29.272 154.788,28.973 154.951 C 28.674 155.115,27.606 155.397,26.600 155.578 C 23.237 156.186,21.118 156.635,20.615 156.846 C 20.052 157.083,17.754 157.674,14.796 158.342 C 12.829 158.787,12.800 158.810,12.698 160.028 L 12.595 161.264 13.945 161.264 C 14.688 161.264,15.295 161.131,15.295 160.969 C 15.295 160.808,16.116 160.573,17.119 160.447 C 18.122 160.322,19.022 160.091,19.119 159.933 C 19.216 159.776,20.118 159.545,21.124 159.419 C 22.129 159.294,23.024 159.073,23.113 158.930 C 23.201 158.786,24.172 158.565,25.270 158.437 C 26.367 158.310,27.265 158.088,27.265 157.945 C 27.265 157.801,28.238 157.579,29.426 157.452 C 30.615 157.325,31.588 157.100,31.588 156.954 C 31.588 156.807,32.709 156.582,34.079 156.453 C 35.450 156.325,36.646 156.098,36.737 155.950 C 36.829 155.802,38.102 155.574,39.566 155.445 C 41.030 155.315,42.228 155.091,42.228 154.947 C 42.228 154.802,43.574 154.577,45.220 154.447 C 46.866 154.317,48.213 154.094,48.213 153.953 C 48.213 153.811,49.784 153.588,51.704 153.457 C 53.624 153.327,55.195 153.101,55.195 152.956 C 55.195 152.811,56.991 152.584,59.185 152.452 C 61.380 152.320,63.175 152.097,63.175 151.957 C 63.175 151.816,65.382 151.592,68.080 151.458 C 70.777 151.324,73.060 151.095,73.152 150.948 C 73.244 150.802,76.423 150.574,80.217 150.440 C 84.011 150.306,87.116 150.069,87.116 149.912 C 87.116 149.754,89.023 149.629,91.355 149.632 L 95.594 149.638 96.675 151.291 C 97.269 152.200,97.756 153.095,97.756 153.280 C 97.756 153.465,97.902 153.616,98.082 153.616 C 98.261 153.616,98.502 153.990,98.617 154.447 C 98.731 154.904,98.963 155.278,99.132 155.278 C 99.301 155.278,99.535 155.540,99.653 155.860 C 99.771 156.180,100.215 156.772,100.640 157.174 C 101.065 157.577,101.413 158.056,101.413 158.239 C 101.413 158.422,101.937 159.080,102.577 159.702 C 103.217 160.323,103.741 160.944,103.741 161.081 C 103.741 161.572,111.859 169.244,112.379 169.244 C 112.535 169.244,112.713 169.370,112.774 169.524 C 112.947 169.963,119.430 174.231,119.924 174.231 C 120.167 174.231,120.366 174.373,120.366 174.546 C 120.366 174.936,128.983 179.219,129.769 179.219 C 130.084 179.219,130.341 179.356,130.341 179.525 C 130.341 179.693,130.800 179.932,131.361 180.055 C 131.922 180.178,132.782 180.488,133.273 180.744 C 133.763 181.000,134.335 181.210,134.542 181.212 C 134.750 181.213,135.348 181.437,135.872 181.710 C 136.396 181.984,137.152 182.208,137.553 182.209 C 137.954 182.210,138.369 182.352,138.475 182.524 C 138.582 182.697,139.341 182.938,140.161 183.062 C 140.982 183.185,141.733 183.413,141.830 183.570 C 141.927 183.726,142.748 183.953,143.655 184.073 C 144.561 184.193,145.303 184.407,145.303 184.549 C 145.303 184.690,146.201 184.910,147.299 185.037 C 148.397 185.165,149.373 185.395,149.468 185.549 C 149.563 185.704,150.685 185.933,151.961 186.058 C 153.237 186.184,154.281 186.404,154.281 186.547 C 154.281 186.690,155.555 186.913,157.112 187.042 C 158.669 187.172,160.016 187.395,160.105 187.539 C 160.193 187.682,161.817 187.905,163.714 188.035 C 167.355 188.283,168.551 188.614,167.271 189.020 C 165.886 189.460,160.266 195.724,160.266 196.828 C 160.266 197.018,160.119 197.174,159.940 197.174 C 159.760 197.174,159.520 197.548,159.405 198.005 C 159.290 198.462,159.075 198.836,158.926 198.836 C 158.778 198.836,158.558 199.285,158.437 199.834 C 158.317 200.382,158.092 200.831,157.938 200.831 C 157.785 200.831,157.555 201.318,157.428 201.912 C 157.301 202.506,157.082 203.142,156.941 203.325 C 156.800 203.508,156.574 204.176,156.438 204.810 C 156.303 205.444,156.070 206.193,155.921 206.473 C 155.773 206.753,155.560 207.410,155.450 207.932 C 155.332 208.486,154.978 208.952,154.598 209.051 C 154.241 209.145,153.948 209.354,153.948 209.515 C 153.948 209.677,153.687 209.814,153.367 209.820 C 153.047 209.826,152.186 210.120,151.455 210.474 C 150.723 210.827,149.872 211.121,149.562 211.128 C 149.253 211.134,148.918 211.271,148.818 211.433 C 148.718 211.595,147.924 211.833,147.053 211.963 C 146.182 212.092,145.310 212.330,145.115 212.490 C 144.099 213.325,130.223 213.334,129.213 212.500 C 129.010 212.333,128.283 212.091,127.598 211.963 C 126.912 211.835,126.351 211.609,126.351 211.461 C 126.351 211.313,125.875 211.087,125.294 210.960 C 124.222 210.724,120.957 208.890,120.754 208.409 C 120.693 208.264,120.438 208.146,120.188 208.146 C 119.938 208.146,119.614 207.956,119.468 207.723 C 119.322 207.490,118.815 207.053,118.342 206.753 C 116.301 205.458,113.259 201.895,110.405 197.457 C 106.943 192.075,104.563 189.274,101.312 186.757 C 100.798 186.360,100.065 185.773,99.681 185.453 C 99.298 185.133,98.798 184.871,98.572 184.871 C 98.345 184.871,98.073 184.647,97.968 184.372 C 97.863 184.098,97.547 183.874,97.267 183.874 C 96.987 183.874,96.758 183.736,96.758 183.568 C 96.758 183.399,96.309 183.163,95.761 183.042 C 95.212 182.922,94.763 182.687,94.763 182.521 C 94.763 182.355,94.165 182.123,93.433 182.006 C 92.702 181.889,92.103 181.668,92.103 181.515 C 92.103 181.362,91.352 181.137,90.433 181.015 C 89.515 180.893,88.683 180.664,88.585 180.505 C 88.351 180.126,80.133 180.128,80.133 180.507 C 80.133 180.667,79.692 180.886,79.153 180.994 C 76.411 181.542,75.870 184.474,78.074 186.838 C 78.771 187.585,79.519 188.196,79.737 188.196 C 79.955 188.196,80.133 188.346,80.133 188.529 C 80.133 188.712,80.425 188.861,80.781 188.861 C 81.138 188.861,81.550 189.048,81.696 189.277 C 81.842 189.505,82.411 189.927,82.959 190.214 C 85.459 191.521,86.953 192.385,87.373 192.768 C 87.623 192.997,87.950 193.184,88.100 193.184 C 88.592 193.184,92.024 196.356,93.898 198.543 C 95.311 200.193,98.753 205.310,98.753 205.762 C 98.753 205.976,98.900 206.151,99.079 206.151 C 99.259 206.151,99.499 206.525,99.614 206.983 C 99.729 207.440,99.940 207.814,100.083 207.814 C 100.226 207.814,100.441 208.201,100.559 208.674 C 100.678 209.146,100.956 209.750,101.177 210.015 C 101.398 210.280,101.729 210.681,101.912 210.907 C 102.095 211.132,102.618 212.062,103.076 212.973 C 103.533 213.885,104.094 214.750,104.323 214.896 C 104.551 215.042,104.738 215.316,104.738 215.503 C 104.738 215.691,105.187 216.294,105.736 216.843 C 106.284 217.391,106.733 217.954,106.733 218.094 C 106.733 218.471,111.294 223.035,112.326 223.690 C 112.816 224.002,113.337 224.447,113.483 224.680 C 113.629 224.913,113.966 225.104,114.231 225.104 C 114.496 225.104,114.713 225.243,114.713 225.414 C 114.713 225.585,115.043 225.829,115.446 225.957 C 115.849 226.085,116.367 226.356,116.598 226.561 C 117.709 227.545,118.043 227.753,118.841 227.953 C 119.314 228.071,119.701 228.289,119.701 228.436 C 119.701 228.583,120.299 228.804,121.031 228.928 C 121.762 229.051,122.361 229.280,122.361 229.435 C 122.361 229.591,123.034 229.819,123.857 229.943 C 124.680 230.066,125.353 230.282,125.353 230.423 C 125.353 230.564,126.214 230.786,127.265 230.916 C 128.317 231.047,129.387 231.326,129.644 231.537 C 130.290 232.068,148.330 232.077,148.993 231.547 C 149.250 231.342,150.544 231.071,151.870 230.945 L 154.281 230.716 154.281 243.186 C 154.281 251.140,154.401 255.729,154.613 255.860 C 155.040 256.124,155.052 265.831,154.629 268.411 C 153.800 273.471,150.691 277.258,145.100 280.016 C 138.472 283.286,139.089 286.951,146.267 286.948 C 155.876 286.945,164.393 283.621,168.356 278.327 C 171.646 273.932,171.985 272.507,172.155 262.344 C 172.234 257.681,172.433 253.723,172.599 253.549 C 172.767 253.374,172.915 247.987,172.932 241.413 C 172.977 224.688,173.290 221.896,175.692 216.801 C 176.347 215.412,177.486 213.936,177.711 214.187 C 178.069 214.585,178.010 285.270,177.651 286.472 C 176.842 289.184,175.787 290.640,173.432 292.297 C 168.122 296.031,169.335 300.527,175.548 300.142 C 183.432 299.654,191.386 294.904,194.450 288.854 C 196.733 284.347,196.623 285.347,196.756 267.896 C 196.859 254.415,196.950 251.974,197.358 251.817 C 197.770 251.659,197.839 248.688,197.839 230.961 C 197.839 208.655,197.802 209.144,199.501 209.144 C 201.201 209.144,201.164 208.655,201.164 230.961 C 201.164 248.748,201.231 251.659,201.648 251.819 C 202.060 251.977,202.148 254.404,202.240 268.230 C 202.361 286.309,202.281 285.650,204.827 289.618 C 210.582 298.586,227.344 303.876,228.611 297.124 C 228.901 295.579,228.037 293.869,226.433 292.807 C 224.753 291.695,223.564 290.389,222.920 288.948 C 222.634 288.306,222.259 287.481,222.088 287.116 C 221.916 286.750,221.629 285.653,221.449 284.679 C 221.269 283.705,221.032 282.764,220.924 282.588 C 220.585 282.040,221.184 214.796,221.527 214.796 C 221.700 214.796,221.919 215.096,222.015 215.461 C 222.111 215.827,222.321 216.126,222.483 216.126 C 222.644 216.126,222.776 216.340,222.776 216.601 C 222.776 216.863,222.966 217.274,223.197 217.516 C 223.741 218.083,225.115 222.355,225.109 223.458 C 225.106 223.924,225.281 224.483,225.498 224.700 C 225.780 224.982,225.968 229.034,226.160 238.981 C 226.791 271.714,226.828 272.120,229.529 276.730 C 233.139 282.889,242.212 286.948,252.369 286.947 C 258.997 286.947,259.845 283.014,253.865 280.009 C 249.325 277.727,245.354 272.422,244.393 267.354 C 243.930 264.913,243.947 255.362,244.414 255.362 C 244.930 255.362,244.701 211.089,244.181 210.442 C 243.975 210.185,243.702 209.117,243.576 208.068 C 243.449 207.020,243.206 206.076,243.036 205.971 C 242.866 205.866,242.721 205.452,242.715 205.051 C 242.709 204.650,242.415 203.724,242.062 202.993 C 241.708 202.261,241.414 201.475,241.408 201.247 C 241.402 201.018,241.259 200.831,241.090 200.831 C 240.922 200.831,240.686 200.382,240.565 199.834 C 240.445 199.285,240.208 198.836,240.040 198.836 C 239.872 198.836,239.734 198.638,239.734 198.396 C 239.734 197.154,233.633 189.859,232.595 189.859 C 232.072 189.859,231.727 189.103,232.034 188.630 C 232.154 188.444,233.971 188.186,236.071 188.055 C 238.171 187.925,239.966 187.697,240.061 187.548 C 240.155 187.400,241.505 187.169,243.059 187.035 C 244.613 186.902,246.035 186.676,246.218 186.534 C 246.401 186.392,247.523 186.167,248.712 186.035 C 249.900 185.903,251.022 185.681,251.205 185.541 C 251.388 185.402,252.286 185.180,253.200 185.048 C 254.115 184.917,255.012 184.692,255.195 184.549 C 255.378 184.407,256.235 184.188,257.099 184.063 C 257.964 183.938,258.748 183.712,258.841 183.560 C 258.934 183.409,259.683 183.185,260.504 183.062 C 261.324 182.938,262.075 182.710,262.172 182.553 C 262.269 182.397,262.945 182.168,263.674 182.045 C 264.404 181.922,265.085 181.684,265.188 181.517 C 265.291 181.350,265.629 181.213,265.938 181.212 C 266.247 181.210,266.902 181.000,267.392 180.744 C 267.883 180.488,268.743 180.178,269.304 180.055 C 269.865 179.932,270.324 179.710,270.324 179.562 C 270.324 179.414,270.848 179.194,271.488 179.074 C 272.128 178.954,272.652 178.725,272.652 178.565 C 272.652 178.405,273.101 178.175,273.649 178.055 C 274.198 177.934,274.647 177.710,274.647 177.556 C 274.647 177.402,275.096 177.178,275.644 177.057 C 276.193 176.937,276.642 176.701,276.642 176.532 C 276.642 176.364,276.809 176.226,277.014 176.226 C 277.475 176.226,281.422 173.867,281.574 173.500 C 281.635 173.354,281.823 173.234,281.993 173.234 C 283.093 173.234,289.966 167.171,293.433 163.142 C 294.347 162.080,295.343 160.938,295.645 160.605 C 295.947 160.272,296.289 159.699,296.405 159.332 C 296.522 158.965,296.836 158.581,297.103 158.478 C 297.371 158.376,297.589 158.063,297.589 157.783 C 297.589 157.503,297.723 157.273,297.886 157.273 C 298.049 157.273,298.276 156.899,298.391 156.442 C 298.506 155.985,298.734 155.611,298.899 155.611 C 299.064 155.611,299.298 155.162,299.418 154.613 C 299.539 154.065,299.775 153.616,299.943 153.616 C 300.112 153.616,300.249 153.392,300.249 153.117 C 300.249 152.843,300.387 152.618,300.555 152.618 C 300.724 152.618,300.960 152.170,301.081 151.621 C 301.201 151.072,301.437 150.623,301.606 150.623 C 301.774 150.623,301.912 150.399,301.912 150.125 C 301.912 149.704,302.688 149.626,306.899 149.626 C 309.643 149.626,311.887 149.754,311.887 149.912 C 311.887 150.069,314.991 150.306,318.785 150.440 C 322.579 150.574,325.759 150.802,325.851 150.948 C 325.943 151.095,328.225 151.324,330.923 151.458 C 333.620 151.592,335.827 151.816,335.827 151.957 C 335.827 152.097,337.623 152.320,339.817 152.452 C 342.012 152.584,343.807 152.811,343.807 152.956 C 343.807 153.101,345.378 153.327,347.298 153.457 C 349.219 153.588,350.790 153.811,350.790 153.953 C 350.790 154.094,352.136 154.317,353.782 154.447 C 355.428 154.577,356.775 154.802,356.775 154.947 C 356.775 155.091,357.973 155.315,359.437 155.445 C 360.901 155.574,362.173 155.802,362.265 155.950 C 362.357 156.098,363.553 156.325,364.923 156.453 C 366.294 156.582,367.415 156.807,367.415 156.954 C 367.415 157.100,368.387 157.325,369.576 157.452 C 370.765 157.579,371.737 157.801,371.737 157.945 C 371.737 158.088,372.635 158.310,373.733 158.437 C 374.831 158.565,375.801 158.786,375.890 158.930 C 375.978 159.073,376.874 159.294,377.879 159.419 C 378.884 159.545,379.786 159.776,379.884 159.933 C 379.981 160.091,380.881 160.322,381.884 160.447 C 382.887 160.573,383.707 160.808,383.707 160.969 C 383.707 161.131,384.315 161.264,385.057 161.264 L 386.408 161.264 386.304 160.028 C 386.203 158.810,386.174 158.787,384.206 158.342 C 381.249 157.674,378.950 157.083,378.387 156.846 C 377.884 156.635,375.766 156.186,372.402 155.578 C 371.397 155.397,370.329 155.115,370.029 154.951 C 369.730 154.788,368.533 154.551,367.369 154.425 C 366.206 154.298,365.093 154.068,364.896 153.913 C 364.700 153.758,363.465 153.532,362.153 153.410 C 360.841 153.288,359.767 153.075,359.767 152.938 C 359.767 152.800,358.533 152.580,357.024 152.449 C 355.515 152.318,354.131 152.115,353.948 151.999 C 353.598 151.776,349.627 151.200,343.807 150.528 C 341.887 150.306,340.165 150.026,339.981 149.905 C 339.796 149.785,337.702 149.579,335.326 149.448 C 332.950 149.317,330.856 149.093,330.673 148.950 C 330.490 148.807,327.947 148.592,325.021 148.471 C 322.095 148.350,319.401 148.121,319.036 147.961 C 318.670 147.800,314.967 147.569,310.806 147.447 C 306.646 147.325,303.242 147.134,303.242 147.023 C 303.242 146.819,304.089 144.358,304.577 143.142 C 304.724 142.776,304.936 142.194,305.048 141.848 C 305.283 141.124,347.279 141.157,347.746 141.882 C 347.869 142.073,350.493 142.325,353.781 142.462 C 356.981 142.595,359.674 142.821,359.766 142.964 C 359.858 143.107,361.841 143.333,364.173 143.466 C 366.505 143.599,368.412 143.828,368.412 143.975 C 368.412 144.122,369.983 144.349,371.904 144.480 C 373.824 144.611,375.395 144.830,375.395 144.968 C 375.395 145.105,376.629 145.325,378.138 145.456 C 379.647 145.587,381.035 145.822,381.223 145.977 C 381.411 146.133,382.720 146.365,384.132 146.492 L 386.700 146.725 386.700 145.516 C 386.700 144.359,386.650 144.306,385.556 144.306 C 384.927 144.306,384.327 144.169,384.224 144.002 C 384.120 143.834,382.877 143.592,381.461 143.463 C 380.045 143.334,378.734 143.108,378.548 142.960 C 378.362 142.812,376.866 142.586,375.223 142.457 C 373.580 142.329,372.086 142.109,371.904 141.969 C 371.721 141.829,369.925 141.605,367.914 141.471 C 365.902 141.338,364.180 141.110,364.087 140.966 C 363.994 140.821,361.750 140.597,359.100 140.467 C 356.449 140.337,354.125 140.108,353.934 139.958 C 353.744 139.807,349.891 139.579,345.372 139.450 C 340.854 139.321,337.157 139.089,337.157 138.934 C 337.157 138.523,307.320 138.574,307.066 138.986 C 306.953 139.169,306.635 139.318,306.361 139.318 C 305.831 139.318,306.007 136.554,306.583 135.824 C 306.729 135.639,306.946 134.517,307.064 133.330 C 307.183 132.143,307.417 130.873,307.583 130.507 C 307.868 129.882,308.197 127.259,308.876 120.200 C 309.035 118.554,309.179 114.934,309.196 112.156 C 309.214 109.182,309.364 107.020,309.559 106.899 C 309.965 106.648,310.014 97.870,309.611 97.621 C 309.457 97.526,309.240 95.335,309.129 92.752 C 309.019 90.169,308.789 87.882,308.619 87.669 C 308.449 87.456,308.205 86.273,308.077 85.041 C 307.949 83.808,307.721 82.723,307.569 82.630 C 307.418 82.536,307.191 81.712,307.066 80.798 C 306.940 79.884,306.702 79.052,306.536 78.950 C 306.370 78.848,306.233 78.436,306.232 78.035 C 306.231 77.635,306.007 76.878,305.734 76.354 C 305.460 75.831,305.237 75.180,305.237 74.909 C 305.237 74.638,305.031 74.020,304.779 73.534 C 303.830 71.702,302.909 69.573,302.909 69.207 C 302.909 68.999,302.776 68.828,302.613 68.828 C 302.450 68.828,302.214 68.418,302.088 67.917 C 301.962 67.416,301.759 66.930,301.636 66.836 C 301.513 66.743,301.114 66.068,300.749 65.337 C 300.384 64.605,299.897 63.809,299.668 63.567 C 299.439 63.326,299.252 62.930,299.252 62.688 C 299.252 62.447,299.027 62.163,298.753 62.058 C 298.479 61.952,298.254 61.637,298.254 61.357 C 298.254 61.077,298.108 60.848,297.928 60.848 C 297.749 60.848,297.511 60.485,297.399 60.041 C 297.288 59.597,296.986 59.153,296.728 59.054 C 296.470 58.955,296.259 58.708,296.259 58.505 C 296.259 58.303,295.810 57.688,295.262 57.139 C 294.713 56.591,294.264 56.012,294.264 55.854 C 294.264 55.696,293.628 54.908,292.851 54.103 C 289.388 50.515,288.434 48.225,289.979 47.204 C 290.126 47.107,290.349 45.797,290.475 44.295 C 290.600 42.792,290.831 41.563,290.987 41.563 C 291.362 41.563,291.358 26.028,290.983 25.796 C 290.824 25.698,290.588 24.269,290.459 22.622 C 290.331 20.974,290.101 19.550,289.950 19.456 C 289.799 19.363,289.571 18.388,289.443 17.291 C 289.316 16.193,289.094 15.295,288.950 15.295 C 288.806 15.295,288.586 14.472,288.460 13.466 C 288.334 12.461,288.109 11.638,287.960 11.638 C 287.811 11.638,287.591 11.120,287.473 10.488 C 287.354 9.856,287.039 8.920,286.773 8.410 C 286.506 7.899,286.287 7.201,286.286 6.859 C 286.284 6.121,273.839 6.140,273.380 6.879 C 273.254 7.082,272.290 7.355,271.239 7.486 C 270.187 7.617,269.327 7.840,269.327 7.981 C 269.327 8.122,268.653 8.338,267.830 8.461 C 267.007 8.585,266.334 8.826,266.334 8.998 C 266.334 9.170,266.027 9.310,265.651 9.310 C 265.041 9.310,262.705 10.194,261.336 10.942 C 261.055 11.095,260.345 11.326,259.756 11.455 C 259.168 11.585,258.687 11.816,258.687 11.970 C 258.687 12.124,258.238 12.348,257.689 12.469 C 257.140 12.589,256.692 12.814,256.692 12.968 C 256.692 13.121,256.243 13.346,255.694 13.466 C 255.145 13.587,254.697 13.811,254.697 13.965 C 254.697 14.119,254.248 14.343,253.699 14.464 C 253.150 14.584,252.702 14.804,252.702 14.953 C 252.702 15.101,252.292 15.326,251.791 15.452 C 251.289 15.577,250.803 15.781,250.710 15.903 C 250.460 16.231,248.636 17.302,247.963 17.516 C 247.643 17.617,247.382 17.832,247.382 17.994 C 247.382 18.155,247.168 18.288,246.907 18.288 C 246.645 18.288,246.234 18.476,245.992 18.707 C 245.751 18.938,245.179 19.311,244.722 19.536 C 243.693 20.042,242.615 20.714,242.394 20.986 C 242.303 21.098,241.891 21.296,241.480 21.424 C 241.068 21.552,240.732 21.797,240.732 21.968 C 240.732 22.138,240.502 22.278,240.222 22.278 C 239.942 22.278,239.627 22.502,239.522 22.776 C 239.307 23.335,236.584 23.496,236.259 22.969 C 236.155 22.800,235.096 22.558,233.907 22.431 C 232.718 22.303,231.669 22.077,231.577 21.928 C 231.485 21.779,230.215 21.553,228.756 21.426 C 227.296 21.298,226.101 21.080,226.101 20.941 C 226.101 20.801,224.568 20.579,222.693 20.448 C 220.819 20.317,219.122 20.077,218.922 19.916 C 218.722 19.755,215.686 19.523,212.176 19.401 C 208.665 19.279,205.715 19.053,205.620 18.900 C 205.394 18.534,192.278 18.535,192.052 18.900 C 191.957 19.054,188.999 19.284,185.478 19.410 C 181.958 19.537,178.997 19.764,178.899 19.916 C 178.800 20.068,177.149 20.302,175.229 20.435 C 173.308 20.568,171.588 20.795,171.405 20.939 C 171.222 21.083,169.914 21.306,168.498 21.435 C 167.082 21.564,165.849 21.788,165.759 21.934 C 165.669 22.080,164.622 22.303,163.433 22.431 C 162.244 22.558,161.194 22.785,161.101 22.936 C 161.008 23.087,160.034 23.314,158.936 23.441 C 157.838 23.569,156.856 23.808,156.755 23.973 C 156.503 24.380,154.281 24.356,154.281 23.946 C 154.281 23.767,153.918 23.529,153.474 23.418 C 153.030 23.306,152.586 23.004,152.487 22.746 C 152.388 22.489,152.078 22.278,151.798 22.278 C 151.518 22.278,151.288 22.128,151.288 21.945 C 151.288 21.762,151.075 21.613,150.813 21.613 C 150.552 21.613,150.134 21.426,149.885 21.197 C 149.308 20.668,148.357 20.057,147.298 19.536 C 146.841 19.311,146.269 18.938,146.028 18.707 C 145.786 18.476,145.375 18.288,145.113 18.288 C 144.852 18.288,144.638 18.155,144.638 17.994 C 144.638 17.832,144.377 17.617,144.057 17.516 C 143.383 17.302,141.560 16.231,141.310 15.903 C 141.217 15.781,140.730 15.577,140.229 15.452 C 139.728 15.326,139.318 15.101,139.318 14.953 C 139.318 14.804,138.869 14.584,138.321 14.464 C 137.772 14.343,137.323 14.119,137.323 13.965 C 137.323 13.811,136.874 13.587,136.326 13.466 C 135.777 13.346,135.328 13.121,135.328 12.968 C 135.328 12.814,134.879 12.589,134.331 12.469 C 133.782 12.348,133.333 12.124,133.333 11.970 C 133.333 11.816,132.852 11.585,132.264 11.455 C 131.675 11.326,130.965 11.095,130.684 10.942 C 129.315 10.194,126.979 9.310,126.369 9.310 C 125.993 9.310,125.686 9.170,125.686 8.998 C 125.686 8.826,125.012 8.585,124.190 8.461 C 123.367 8.338,122.693 8.122,122.693 7.981 C 122.693 7.840,121.833 7.617,120.781 7.486 C 119.730 7.355,118.770 7.087,118.648 6.891 C 118.193 6.160,105.736 6.126,105.734 6.856 M171.405 91.777 C 190.250 93.203,209.946 93.323,220.615 92.078 C 229.453 91.046,247.843 91.072,252.203 92.123 C 262.530 94.611,267.966 98.190,274.475 106.790 C 276.709 109.741,280.632 116.872,280.632 117.980 C 280.632 118.182,280.851 118.993,281.119 119.783 C 283.231 126.003,282.395 140.911,279.435 149.827 C 276.991 157.187,271.767 164.875,266.986 168.147 C 266.536 168.454,266.093 168.795,266.002 168.903 C 265.186 169.870,256.384 174.564,255.387 174.564 C 255.185 174.564,254.760 174.700,254.443 174.867 C 251.523 176.399,242.251 178.398,234.248 179.219 C 232.419 179.407,229.726 179.721,228.263 179.918 C 220.482 180.962,182.611 180.608,170.906 179.381 C 164.763 178.738,156.233 177.394,155.112 176.893 C 154.746 176.730,153.774 176.496,152.951 176.374 C 152.128 176.251,151.305 176.038,151.122 175.899 C 150.939 175.761,150.210 175.543,149.502 175.415 C 148.794 175.288,147.971 175.057,147.673 174.902 C 147.376 174.748,145.786 174.136,144.140 173.544 C 127.202 167.447,117.354 154.954,115.194 136.825 C 114.497 130.972,114.747 122.698,115.687 120.532 C 115.846 120.166,116.305 118.841,116.707 117.587 C 117.375 115.501,119.919 110.230,120.711 109.289 C 120.894 109.072,121.991 107.623,123.149 106.068 C 132.732 93.207,144.448 89.737,171.405 91.777 M94.514 185.466 C 95.713 186.508,95.032 188.196,93.412 188.196 C 92.484 188.196,90.773 186.777,90.773 186.008 C 90.773 184.688,93.211 184.334,94.514 185.466 M100.615 189.992 C 101.859 191.235,102.038 192.179,101.192 193.024 C 100.008 194.209,97.091 192.553,97.091 190.695 C 97.091 188.707,98.958 188.334,100.615 189.992 M106.416 196.270 C 108.682 198.055,108.587 201.247,106.268 201.247 C 104.312 201.247,102.534 198.462,103.348 196.674 C 103.771 195.747,105.468 195.523,106.416 196.270 M112.671 204.464 C 114.277 205.284,114.700 205.811,114.940 207.293 C 115.303 209.528,113.602 210.446,111.487 209.157 C 108.185 207.144,109.295 202.742,112.671 204.464 M120.881 211.804 C 121.525 211.804,123.691 214.038,123.691 214.703 C 123.691 217.086,120.617 217.365,118.288 215.192 C 116.668 213.681,117.942 211.021,119.977 211.664 C 120.221 211.741,120.627 211.804,120.881 211.804 M153.945 213.751 C 153.931 217.184,152.335 218.393,150.648 216.248 C 149.777 215.141,149.782 215.056,150.801 213.846 C 152.128 212.269,153.951 212.214,153.945 213.751 M132.293 215.496 C 134.130 216.137,134.639 218.290,133.179 219.247 C 130.445 221.038,126.103 217.948,128.480 215.903 C 129.465 215.056,130.664 214.928,132.293 215.496 M144.760 216.150 C 147.154 218.034,143.911 220.933,140.844 219.651 C 138.985 218.874,138.606 216.995,140.099 215.950 C 141.151 215.213,143.708 215.323,144.760 216.150 " stroke="none" fill="#231b1b" fill-rule="evenodd"></path><path id="path2" d="M91.687 185.230 C 90.864 185.710,90.965 186.375,91.982 187.175 C 92.922 187.914,94.254 188.085,94.609 187.512 C 95.450 186.151,93.168 184.368,91.687 185.230 M80.490 189.330 C 80.294 189.566,80.039 190.455,79.922 191.305 C 79.805 192.156,79.590 192.851,79.443 192.851 C 79.296 192.851,79.073 193.562,78.948 194.431 C 78.822 195.299,78.602 196.160,78.458 196.342 C 78.315 196.525,78.098 197.273,77.976 198.005 C 77.855 198.736,77.595 199.755,77.400 200.268 C 77.141 200.947,77.148 201.304,77.425 201.581 C 77.634 201.791,77.810 202.268,77.817 202.643 C 77.823 203.018,78.123 203.680,78.484 204.113 C 79.765 205.651,84.123 204.984,84.123 203.251 C 84.123 203.017,84.273 202.826,84.456 202.826 C 84.640 202.826,84.788 201.940,84.788 200.831 C 84.788 199.734,84.652 198.836,84.487 198.836 C 84.321 198.836,84.083 198.088,83.957 197.174 C 83.831 196.259,83.607 195.511,83.458 195.511 C 83.309 195.511,83.085 194.763,82.959 193.849 C 82.834 192.935,82.608 192.111,82.458 192.019 C 82.308 191.926,82.087 191.264,81.966 190.548 C 81.732 189.163,81.077 188.623,80.490 189.330 M97.839 189.407 C 97.193 189.678,97.349 191.316,98.097 192.119 C 100.096 194.265,102.613 192.568,100.665 190.388 C 99.908 189.541,98.600 189.087,97.839 189.407 M103.610 196.702 C 102.744 198.960,105.696 202.153,107.231 200.618 C 107.971 199.879,107.697 198.033,106.688 196.960 C 105.818 196.033,103.927 195.875,103.610 196.702 M110.104 205.207 C 109.698 206.304,110.042 207.414,111.123 208.495 C 113.253 210.625,115.693 209.021,114.342 206.379 C 113.390 204.517,110.640 203.757,110.104 205.207 M119.118 212.063 C 118.706 212.129,118.205 212.490,118.003 212.867 C 116.896 214.936,121.225 217.600,122.824 215.833 C 124.285 214.219,121.752 211.643,119.118 212.063 M151.174 213.742 C 150.179 214.841,150.462 216.093,151.835 216.667 C 153.248 217.257,153.602 216.972,153.611 215.239 C 153.614 214.660,153.707 213.949,153.818 213.660 C 154.118 212.877,151.894 212.946,151.174 213.742 M128.564 216.069 C 126.643 218.192,131.284 220.836,133.333 218.786 C 134.217 217.902,134.176 217.583,133.026 216.433 C 131.838 215.244,129.484 215.052,128.564 216.069 M140.981 215.890 C 139.521 216.564,139.137 218.157,140.233 218.989 C 141.164 219.695,143.853 219.572,144.638 218.786 C 146.475 216.949,143.607 214.678,140.981 215.890 M197.376 252.230 C 197.265 252.519,197.174 259.243,197.174 267.172 C 197.174 287.342,196.270 290.295,188.362 295.981 C 186.157 297.567,182.334 299.252,179.066 300.080 C 176.754 300.665,172.946 300.739,171.808 300.221 C 168.972 298.929,169.584 294.156,172.808 292.420 C 177.452 289.918,177.681 288.861,177.812 269.244 L 177.923 252.702 175.745 252.702 C 174.514 252.702,173.566 252.846,173.566 253.034 C 173.566 253.217,173.342 253.367,173.067 253.367 C 172.638 253.367,172.569 254.440,172.569 261.032 C 172.569 272.252,171.608 275.597,167.082 280.143 C 159.144 288.117,136.540 290.304,140.766 282.690 C 141.294 281.738,142.386 281.006,145.853 279.282 C 152.605 275.924,154.698 271.663,154.538 261.601 L 154.447 255.860 153.345 255.755 C 152.739 255.696,152.065 255.794,151.849 255.971 C 151.632 256.148,150.295 256.400,148.878 256.531 C 147.461 256.662,146.301 256.877,146.301 257.008 C 146.301 257.139,145.366 257.410,144.223 257.611 C 140.620 258.241,138.499 258.736,138.146 259.027 C 137.959 259.182,137.024 259.413,136.068 259.539 C 135.113 259.666,134.331 259.886,134.331 260.028 C 134.331 260.170,133.583 260.390,132.668 260.515 C 131.754 260.641,131.006 260.863,131.006 261.008 C 131.006 261.153,130.336 261.372,129.517 261.494 C 128.699 261.617,127.950 261.846,127.853 262.002 C 127.756 262.158,127.080 262.387,126.349 262.511 C 125.619 262.634,125.021 262.858,125.021 263.009 C 125.021 263.160,124.422 263.384,123.691 263.508 C 122.959 263.631,122.361 263.862,122.361 264.021 C 122.361 264.179,121.800 264.412,121.114 264.538 C 120.428 264.664,119.792 264.858,119.701 264.969 C 119.609 265.080,119.011 265.407,118.371 265.697 C 116.349 266.612,111.894 268.821,111.721 268.994 C 111.629 269.086,110.844 269.531,109.975 269.985 C 109.106 270.438,108.396 270.924,108.396 271.065 C 108.396 271.206,108.202 271.322,107.965 271.322 C 107.485 271.322,106.496 272.021,105.026 273.400 C 104.489 273.903,103.942 274.314,103.810 274.314 C 103.415 274.314,99.813 277.924,100.011 278.121 C 100.112 278.222,100.019 278.304,99.806 278.304 C 99.593 278.304,99.418 278.460,99.418 278.651 C 99.418 278.842,99.039 279.403,98.576 279.898 C 98.114 280.393,97.648 281.135,97.543 281.546 C 97.437 281.958,97.255 282.294,97.138 282.294 C 96.837 282.294,95.818 285.846,95.644 287.503 C 95.250 291.258,96.556 295.896,98.670 298.247 C 99.081 298.704,99.418 299.183,99.418 299.311 C 99.418 299.658,104.030 304.239,104.380 304.239 C 104.547 304.239,104.733 304.363,104.794 304.514 C 104.943 304.884,109.944 308.229,110.348 308.229 C 110.524 308.229,110.718 308.344,110.779 308.484 C 110.840 308.624,112.086 309.334,113.549 310.062 C 115.012 310.789,116.284 311.478,116.376 311.591 C 116.467 311.704,116.916 311.903,117.373 312.031 C 117.830 312.160,118.653 312.464,119.202 312.706 C 119.751 312.949,120.574 313.304,121.031 313.496 C 121.488 313.688,122.565 314.153,123.423 314.529 C 124.282 314.905,125.292 315.212,125.668 315.212 C 126.043 315.212,126.351 315.352,126.351 315.524 C 126.351 315.696,127.024 315.937,127.847 316.061 C 128.670 316.184,129.343 316.408,129.343 316.559 C 129.343 316.710,130.018 316.935,130.844 317.059 C 131.669 317.182,132.423 317.412,132.520 317.568 C 132.617 317.725,133.438 317.951,134.345 318.071 C 135.251 318.192,135.993 318.400,135.993 318.534 C 135.993 318.668,136.854 318.941,137.905 319.141 C 141.600 319.842,143.480 320.273,144.003 320.537 C 144.294 320.683,145.416 320.910,146.497 321.041 C 147.578 321.172,148.612 321.397,148.795 321.542 C 148.978 321.687,150.215 321.913,151.545 322.044 C 152.875 322.175,154.037 322.401,154.127 322.546 C 154.216 322.691,155.634 322.915,157.278 323.044 C 158.921 323.173,160.266 323.393,160.266 323.535 C 160.266 323.676,161.987 323.899,164.090 324.030 C 166.193 324.162,167.914 324.384,167.914 324.524 C 167.914 324.664,170.195 324.889,172.984 325.023 C 176.143 325.174,178.144 325.408,178.292 325.642 C 178.631 326.179,222.809 326.178,223.473 325.641 C 223.739 325.426,226.050 325.161,228.846 325.024 C 231.545 324.893,233.824 324.669,233.912 324.528 C 233.999 324.386,235.794 324.162,237.900 324.031 C 240.006 323.899,241.729 323.676,241.729 323.535 C 241.729 323.393,243.074 323.173,244.717 323.044 C 246.361 322.915,247.780 322.690,247.871 322.542 C 247.962 322.394,249.160 322.168,250.533 322.040 C 251.906 321.911,253.103 321.686,253.193 321.541 C 253.284 321.395,254.330 321.171,255.520 321.044 C 256.709 320.917,257.758 320.689,257.851 320.539 C 257.944 320.388,258.919 320.161,260.017 320.033 C 261.115 319.906,262.090 319.677,262.184 319.525 C 262.278 319.373,263.177 319.146,264.183 319.020 C 265.188 318.895,266.087 318.668,266.180 318.517 C 266.273 318.366,267.021 318.142,267.842 318.019 C 268.663 317.896,269.409 317.676,269.499 317.530 C 269.589 317.384,270.260 317.164,270.989 317.041 C 271.719 316.917,272.400 316.680,272.503 316.513 C 272.607 316.346,273.019 316.209,273.419 316.207 C 273.820 316.206,274.577 315.982,275.100 315.709 C 275.624 315.435,276.297 315.207,276.597 315.201 C 276.896 315.194,277.739 314.900,278.470 314.547 C 279.202 314.194,279.922 313.899,280.070 313.893 C 280.742 313.865,291.055 308.863,291.216 308.487 C 291.277 308.345,291.539 308.229,291.798 308.229 C 292.057 308.229,292.269 308.080,292.269 307.897 C 292.269 307.714,292.456 307.563,292.685 307.562 C 293.244 307.558,298.703 303.442,300.623 301.577 C 302.311 299.937,304.684 296.568,305.072 295.262 C 305.207 294.805,305.487 294.221,305.693 293.964 C 307.078 292.242,305.570 281.378,303.850 280.687 C 303.699 280.626,303.571 280.402,303.567 280.188 C 303.560 279.860,303.012 279.151,300.954 276.808 C 300.628 276.436,299.304 275.313,297.430 273.815 C 296.742 273.267,295.802 272.481,295.340 272.070 C 294.878 271.658,294.297 271.322,294.050 271.322 C 293.802 271.322,293.599 271.190,293.599 271.028 C 293.599 270.866,293.337 270.651,293.017 270.550 C 292.448 270.369,290.603 269.323,290.274 268.994 C 289.904 268.624,285.091 266.318,284.705 266.326 C 284.476 266.330,284.289 266.220,284.289 266.080 C 284.289 265.940,283.504 265.549,282.544 265.212 C 281.584 264.874,280.170 264.316,279.403 263.970 C 278.636 263.624,277.701 263.342,277.325 263.342 C 276.949 263.342,276.642 263.194,276.642 263.013 C 276.642 262.832,276.043 262.589,275.312 262.472 C 274.580 262.355,273.982 262.146,273.982 262.007 C 273.982 261.868,273.312 261.654,272.493 261.531 C 271.675 261.409,270.923 261.176,270.823 261.014 C 270.723 260.852,269.970 260.619,269.149 260.496 C 268.328 260.373,267.583 260.154,267.493 260.009 C 267.404 259.865,266.583 259.644,265.669 259.518 C 264.755 259.392,263.932 259.168,263.840 259.019 C 263.749 258.871,262.888 258.643,261.928 258.514 C 260.968 258.385,260.033 258.164,259.850 258.022 C 259.667 257.880,258.695 257.655,257.689 257.523 C 256.683 257.390,255.711 257.166,255.528 257.024 C 255.345 256.882,254.223 256.658,253.034 256.525 C 251.845 256.393,250.713 256.156,250.518 255.999 C 250.323 255.842,248.901 255.672,247.359 255.621 L 244.555 255.528 244.454 260.349 C 244.248 270.145,247.300 276.445,253.792 279.628 C 259.913 282.628,259.312 287.294,252.807 287.275 C 244.019 287.250,236.260 284.566,231.754 279.993 C 227.399 275.573,226.434 272.032,226.434 260.480 L 226.434 252.702 225.021 252.698 C 224.244 252.696,223.038 252.600,222.343 252.485 L 221.078 252.276 221.197 268.033 C 221.310 282.820,221.359 283.913,221.993 285.786 C 223.210 289.379,224.872 291.788,226.830 292.801 C 228.907 293.875,229.713 296.783,228.433 298.581 C 226.374 301.472,221.496 301.174,213.799 297.685 C 208.075 295.091,203.317 289.492,202.192 284.024 C 201.961 282.906,201.829 276.866,201.829 267.509 C 201.829 250.435,202.016 251.704,199.501 251.704 C 198.054 251.704,197.527 251.834,197.376 252.230 " stroke="none" fill="#7cbbe3" fill-rule="evenodd"></path><path id="path3" d="M155.871 91.684 C 156.838 91.751,158.334 91.750,159.197 91.682 C 160.059 91.614,159.268 91.559,157.440 91.560 C 155.611 91.560,154.905 91.616,155.871 91.684 M236.991 91.685 C 238.317 91.748,240.486 91.748,241.812 91.685 C 243.138 91.622,242.053 91.570,239.401 91.570 C 236.750 91.570,235.665 91.622,236.991 91.685 M149.547 92.006 C 149.960 92.085,150.559 92.082,150.877 91.999 C 151.195 91.916,150.856 91.851,150.125 91.854 C 149.393 91.858,149.133 91.926,149.547 92.006 M166.174 92.012 C 166.771 92.086,167.669 92.084,168.169 92.008 C 168.669 91.932,168.180 91.872,167.082 91.874 C 165.985 91.875,165.576 91.938,166.174 92.012 M228.512 92.009 C 229.015 92.085,229.838 92.085,230.341 92.009 C 230.844 91.933,230.432 91.870,229.426 91.870 C 228.421 91.870,228.009 91.933,228.512 92.009 M246.800 92.000 C 247.120 92.083,247.643 92.083,247.963 92.000 C 248.283 91.916,248.022 91.848,247.382 91.848 C 246.741 91.848,246.480 91.916,246.800 92.000 M144.971 92.436 C 144.224 92.675,144.265 92.705,145.367 92.735 C 146.042 92.753,146.687 92.618,146.800 92.436 C 147.037 92.051,146.172 92.051,144.971 92.436 M173.234 92.407 C 173.234 92.637,174.218 92.768,175.949 92.768 C 179.276 92.768,179.226 92.593,175.810 92.281 C 174.035 92.119,173.234 92.159,173.234 92.407 M219.784 92.436 C 218.408 92.650,218.480 92.672,220.679 92.718 C 221.994 92.746,223.162 92.618,223.275 92.436 C 223.503 92.067,222.154 92.067,219.784 92.436 M250.707 92.436 C 250.707 92.618,251.193 92.758,251.787 92.745 C 252.693 92.725,252.760 92.675,252.203 92.436 C 251.284 92.041,250.707 92.041,250.707 92.436 M181.634 93.007 C 182.139 93.083,182.887 93.081,183.296 93.002 C 183.705 92.923,183.292 92.861,182.377 92.863 C 181.463 92.866,181.128 92.930,181.634 93.007 M213.887 93.007 C 214.392 93.083,215.140 93.081,215.549 93.002 C 215.958 92.923,215.544 92.861,214.630 92.863 C 213.716 92.866,213.381 92.930,213.887 93.007 M140.482 93.619 C 139.933 93.888,139.759 94.031,140.094 93.937 C 140.429 93.843,140.990 93.766,141.341 93.766 C 141.691 93.766,141.978 93.616,141.978 93.433 C 141.978 92.995,141.682 93.031,140.482 93.619 M189.526 93.512 C 189.526 93.651,193.482 93.766,198.318 93.766 C 203.153 93.766,207.180 93.651,207.266 93.512 C 207.353 93.372,203.396 93.258,198.475 93.258 C 193.553 93.258,189.526 93.372,189.526 93.512 M255.362 93.433 C 255.362 93.616,255.698 93.763,256.110 93.760 C 256.715 93.756,256.762 93.694,256.359 93.433 C 255.714 93.016,255.362 93.016,255.362 93.433 M137.655 94.638 L 136.825 95.123 137.656 94.902 C 138.582 94.655,138.832 94.498,138.625 94.292 C 138.549 94.215,138.112 94.371,137.655 94.638 M258.354 94.431 C 258.354 94.613,258.566 94.763,258.826 94.763 C 259.085 94.763,259.571 94.848,259.906 94.952 C 260.241 95.056,260.141 94.912,259.684 94.632 C 258.702 94.029,258.354 93.977,258.354 94.431 M260.682 95.396 C 260.682 95.673,262.046 96.170,262.248 95.968 C 262.302 95.913,261.972 95.698,261.514 95.489 C 261.056 95.281,260.682 95.239,260.682 95.396 M133.500 96.647 C 132.915 97.115,132.908 97.155,133.444 96.969 C 133.779 96.853,134.190 96.758,134.358 96.758 C 134.526 96.758,134.663 96.608,134.663 96.426 C 134.663 95.955,134.270 96.030,133.500 96.647 M127.348 101.746 C 125.312 103.794,123.722 105.545,123.815 105.638 C 123.908 105.731,125.644 104.126,127.673 102.071 C 129.703 100.016,131.293 98.264,131.207 98.178 C 131.121 98.092,129.384 99.698,127.348 101.746 M265.669 98.156 C 265.669 98.426,273.038 105.793,273.173 105.658 C 273.379 105.451,268.555 100.318,266.988 99.077 C 266.263 98.502,265.669 98.088,265.669 98.156 M121.530 108.617 C 119.618 111.513,119.516 111.721,120.006 111.721 C 120.204 111.721,120.366 111.519,120.366 111.273 C 120.366 110.878,120.670 110.428,122.022 108.825 C 122.208 108.604,122.361 108.291,122.361 108.129 C 122.361 107.966,122.660 107.563,123.026 107.232 C 123.392 106.901,123.691 106.504,123.691 106.349 C 123.691 105.635,123.063 106.294,121.530 108.617 M273.317 106.217 C 273.317 106.299,274.065 107.354,274.979 108.562 C 275.894 109.770,276.642 110.962,276.642 111.212 C 276.642 111.461,276.754 111.715,276.891 111.776 C 277.028 111.837,277.563 112.761,278.080 113.829 C 278.597 114.897,279.095 115.696,279.187 115.604 C 279.470 115.321,277.761 112.043,275.737 108.984 C 274.087 106.492,273.317 105.611,273.317 106.217 M118.559 113.672 C 117.605 115.554,117.565 115.711,118.038 115.711 C 118.221 115.711,118.371 115.521,118.371 115.290 C 118.371 115.059,118.679 114.295,119.056 113.592 C 119.432 112.889,119.667 112.241,119.577 112.151 C 119.487 112.061,119.029 112.745,118.559 113.672 M151.437 115.866 C 139.156 121.992,142.023 148.058,154.977 148.061 C 163.548 148.063,168.982 135.337,165.172 124.190 C 162.694 116.941,156.638 113.272,151.437 115.866 M241.729 115.604 C 229.096 121.071,231.723 148.069,244.888 148.069 C 256.079 148.069,260.583 127.224,251.374 118.047 C 248.567 115.250,244.769 114.288,241.729 115.604 M117.098 117.020 C 116.882 117.640,116.777 118.217,116.864 118.305 C 117.086 118.527,117.754 116.686,117.609 116.251 C 117.543 116.055,117.313 116.401,117.098 117.020 M279.487 116.874 C 279.615 117.423,279.861 118.022,280.033 118.204 C 280.230 118.414,280.260 118.168,280.114 117.539 C 279.986 116.991,279.740 116.392,279.568 116.209 C 279.371 116.000,279.341 116.246,279.487 116.874 M280.499 119.867 C 280.616 120.599,280.847 121.342,281.011 121.519 C 281.376 121.913,281.000 119.751,280.579 119.036 C 280.397 118.725,280.366 119.040,280.499 119.867 M116.273 119.285 C 115.939 119.871,115.674 122.179,115.977 121.862 C 116.320 121.503,116.844 119.036,116.577 119.036 C 116.488 119.036,116.351 119.148,116.273 119.285 M152.299 121.542 C 154.117 123.187,153.651 126.118,151.401 127.185 C 148.746 128.445,146.132 126.066,146.805 123.002 C 147.261 120.925,150.629 120.030,152.299 121.542 M243.155 121.700 C 245.389 123.457,244.195 126.980,241.358 127.005 C 239.015 127.026,237.660 124.987,238.569 122.810 C 239.339 120.969,241.546 120.434,243.155 121.700 M281.512 124.190 C 281.623 125.104,281.770 125.914,281.838 125.991 C 282.098 126.282,281.900 123.824,281.612 123.192 C 281.409 122.744,281.376 123.070,281.512 124.190 M115.259 123.761 C 115.147 124.179,115.071 125.046,115.092 125.686 C 115.120 126.574,115.191 126.417,115.393 125.022 C 115.671 123.102,115.604 122.471,115.259 123.761 M196.980 149.616 C 194.703 150.537,193.707 154.164,195.208 156.072 C 197.822 159.394,203.051 157.774,203.133 153.616 C 203.193 150.611,199.866 148.448,196.980 149.616 M126.850 162.594 C 127.564 163.325,128.223 163.924,128.315 163.924 C 128.406 163.924,127.896 163.325,127.182 162.594 C 126.468 161.862,125.809 161.264,125.717 161.264 C 125.626 161.264,126.135 161.862,126.850 162.594 M189.040 163.245 C 187.518 164.927,190.874 169.312,195.020 171.059 C 199.658 173.012,206.433 170.301,208.345 165.726 C 209.585 162.758,207.469 161.365,205.973 164.166 C 202.704 170.288,194.181 170.399,191.639 164.351 C 191.266 163.463,190.339 162.594,189.766 162.594 C 189.691 162.594,189.364 162.887,189.040 163.245 M185.287 180.126 C 185.973 180.198,187.095 180.198,187.781 180.126 C 188.466 180.054,187.905 179.995,186.534 179.995 C 185.162 179.995,184.601 180.054,185.287 180.126 M214.724 180.129 C 215.691 180.197,217.187 180.196,218.049 180.128 C 218.912 180.059,218.121 180.004,216.293 180.005 C 214.464 180.006,213.758 180.062,214.724 180.129 M197.091 180.464 C 198.782 180.524,201.550 180.524,203.242 180.464 C 204.933 180.404,203.549 180.354,200.166 180.354 C 196.783 180.354,195.399 180.404,197.091 180.464 " stroke="none" fill="#ac5c54" fill-rule="evenodd"></path><path id="path4" d="M156.858 91.340 C 157.269 91.419,157.943 91.419,158.354 91.340 C 158.766 91.261,158.429 91.196,157.606 91.196 C 156.783 91.196,156.446 91.261,156.858 91.340 M238.000 91.351 C 238.966 91.418,240.462 91.418,241.325 91.350 C 242.187 91.281,241.397 91.226,239.568 91.227 C 237.739 91.228,237.033 91.284,238.000 91.351 M147.465 91.774 C 146.733 91.906,147.930 91.939,150.125 91.847 C 152.319 91.754,154.177 91.624,154.253 91.558 C 154.499 91.345,148.838 91.525,147.465 91.774 M160.626 91.560 C 160.702 91.628,163.907 91.759,167.747 91.852 C 172.145 91.959,173.622 91.927,171.737 91.765 C 168.627 91.498,160.384 91.346,160.626 91.560 M224.605 91.781 C 223.325 91.904,225.046 91.934,228.429 91.847 C 231.812 91.760,234.643 91.632,234.719 91.563 C 234.936 91.366,227.189 91.533,224.605 91.781 M244.084 91.561 C 244.160 91.629,245.869 91.766,247.880 91.866 C 250.323 91.987,251.041 91.955,250.042 91.768 C 248.556 91.489,243.819 91.325,244.084 91.561 M175.977 92.332 C 176.297 92.416,176.820 92.416,177.140 92.332 C 177.461 92.249,177.199 92.180,176.559 92.180 C 175.919 92.180,175.657 92.249,175.977 92.332 M219.534 92.332 C 219.855 92.416,220.378 92.416,220.698 92.332 C 221.018 92.249,220.756 92.180,220.116 92.180 C 219.476 92.180,219.214 92.249,219.534 92.332 M142.311 92.768 C 141.653 92.979,141.618 93.034,142.145 93.034 C 142.510 93.034,143.184 92.914,143.641 92.768 C 144.299 92.557,144.334 92.502,143.807 92.502 C 143.441 92.502,142.768 92.622,142.311 92.768 M181.546 92.785 C 183.283 92.917,186.351 93.017,188.362 93.005 L 192.020 92.984 188.030 92.755 C 185.835 92.629,182.768 92.530,181.214 92.534 L 178.387 92.543 181.546 92.785 M208.479 92.768 L 204.988 92.970 208.645 92.998 C 210.657 93.014,213.724 92.917,215.461 92.785 L 218.620 92.543 215.295 92.554 C 213.466 92.561,210.399 92.657,208.479 92.768 M253.533 92.768 C 254.939 93.126,256.147 93.126,255.029 92.768 C 254.572 92.622,253.824 92.505,253.367 92.508 C 252.620 92.514,252.637 92.540,253.533 92.768 M196.259 93.347 C 197.494 93.411,199.514 93.411,200.748 93.347 C 201.983 93.283,200.973 93.231,198.504 93.231 C 196.035 93.231,195.025 93.283,196.259 93.347 M138.986 93.766 C 138.543 94.052,138.543 94.088,138.986 94.088 C 139.260 94.088,139.709 93.943,139.983 93.766 C 140.427 93.479,140.427 93.443,139.983 93.443 C 139.709 93.443,139.260 93.588,138.986 93.766 M257.190 93.766 C 258.184 94.193,259.015 94.193,258.354 93.766 C 258.080 93.588,257.556 93.451,257.190 93.462 L 256.525 93.480 257.190 93.766 M136.140 94.925 C 135.550 95.377,135.587 95.388,136.575 95.058 C 137.704 94.682,137.962 94.431,137.221 94.431 C 136.981 94.431,136.495 94.653,136.140 94.925 M261.965 95.738 C 265.937 97.961,269.669 101.167,272.760 105.013 C 273.249 105.621,273.649 105.937,273.649 105.714 C 273.649 104.116,263.339 95.594,260.183 94.582 C 259.817 94.465,260.619 94.985,261.965 95.738 M129.990 98.860 C 127.716 100.738,123.358 105.284,123.358 105.778 C 123.358 105.940,124.389 104.903,125.648 103.474 C 126.908 102.045,128.928 100.072,130.137 99.091 C 132.137 97.468,132.533 97.091,132.234 97.091 C 132.178 97.091,131.168 97.887,129.990 98.860 M122.153 107.315 C 121.169 108.665,120.866 109.353,121.676 108.396 C 122.426 107.510,123.125 106.401,122.934 106.401 C 122.870 106.401,122.519 106.812,122.153 107.315 M275.299 108.313 C 276.051 109.456,276.744 110.391,276.839 110.391 C 277.118 110.391,276.013 108.658,274.931 107.398 C 274.182 106.527,274.275 106.757,275.299 108.313 M119.877 110.640 C 119.525 111.326,119.169 112.022,119.085 112.188 C 119.001 112.353,119.106 112.382,119.317 112.251 C 119.528 112.121,119.701 111.859,119.701 111.669 C 119.701 111.480,120.010 110.890,120.388 110.359 C 120.767 109.828,120.950 109.393,120.797 109.393 C 120.643 109.393,120.229 109.954,119.877 110.640 M279.150 115.129 C 279.275 115.540,279.513 116.023,279.681 116.202 C 279.848 116.381,279.816 116.044,279.611 115.454 C 279.190 114.246,278.801 113.971,279.150 115.129 M117.356 115.591 C 117.172 116.073,117.084 116.530,117.159 116.605 C 117.235 116.680,117.455 116.286,117.650 115.728 C 118.082 114.487,117.821 114.366,117.356 115.591 M279.992 117.041 C 279.995 117.315,280.208 117.988,280.467 118.537 L 280.937 119.534 280.739 118.537 C 280.492 117.288,279.984 116.272,279.992 117.041 M116.708 117.126 C 116.708 117.173,116.561 117.724,116.382 118.351 C 116.202 118.977,116.183 119.350,116.339 119.180 C 116.679 118.808,117.127 117.041,116.881 117.041 C 116.786 117.041,116.708 117.079,116.708 117.126 M281.171 121.197 C 281.498 123.170,281.976 124.150,281.739 122.361 C 281.630 121.538,281.408 120.640,281.245 120.366 C 281.062 120.056,281.034 120.370,281.171 121.197 M115.562 120.781 C 115.491 121.010,115.352 121.870,115.252 122.693 C 115.040 124.441,115.506 123.532,115.806 121.613 C 115.992 120.427,115.835 119.895,115.562 120.781 M282.055 130.507 C 282.064 135.109,282.067 135.125,282.286 131.929 C 282.408 130.151,282.404 128.056,282.276 127.274 C 282.134 126.402,282.049 127.653,282.055 130.507 M114.840 130.175 C 114.841 132.369,114.895 133.224,114.960 132.073 C 115.025 130.923,115.024 129.128,114.959 128.083 C 114.893 127.039,114.839 127.980,114.840 130.175 M115.123 135.993 C 115.123 136.633,115.191 136.895,115.275 136.575 C 115.359 136.255,115.359 135.732,115.275 135.411 C 115.191 135.091,115.123 135.353,115.123 135.993 M281.706 137.323 C 281.706 137.963,281.775 138.225,281.858 137.905 C 281.942 137.585,281.942 137.062,281.858 136.741 C 281.775 136.421,281.706 136.683,281.706 137.323 M115.456 138.820 C 115.456 139.368,115.571 140.266,115.711 140.815 C 116.063 142.197,116.078 140.836,115.730 139.152 C 115.498 138.034,115.455 137.981,115.456 138.820 M281.146 141.162 C 281.018 142.010,280.989 142.779,281.081 142.871 C 281.172 142.962,281.351 142.343,281.478 141.495 C 281.605 140.647,281.635 139.878,281.543 139.786 C 281.452 139.695,281.273 140.314,281.146 141.162 M116.404 143.807 C 116.394 144.173,116.531 144.697,116.708 144.971 C 117.135 145.632,117.135 144.801,116.708 143.807 L 116.422 143.142 116.404 143.807 M280.133 146.301 C 280.007 146.876,279.978 147.421,280.070 147.512 C 280.161 147.604,280.339 147.208,280.466 146.633 C 280.592 146.059,280.620 145.514,280.529 145.422 C 280.437 145.331,280.259 145.726,280.133 146.301 M117.383 147.298 C 117.383 147.573,117.528 148.022,117.706 148.296 C 117.992 148.739,118.028 148.739,118.028 148.296 C 118.028 148.022,117.883 147.573,117.706 147.298 C 117.419 146.855,117.383 146.855,117.383 147.298 M277.159 154.887 C 277.044 155.249,276.210 156.794,275.304 158.321 C 274.399 159.848,273.999 160.685,274.416 160.180 C 275.400 158.991,277.759 154.623,277.538 154.401 C 277.444 154.308,277.274 154.526,277.159 154.887 M122.855 158.105 C 124.024 159.730,125.686 161.686,125.686 161.437 C 125.686 161.239,122.846 157.653,122.257 157.107 C 122.060 156.924,122.329 157.373,122.855 158.105 M269.989 164.917 C 266.408 168.593,266.257 169.094,269.758 165.683 C 271.437 164.048,273.931 161.196,273.594 161.297 C 273.533 161.315,271.911 162.944,269.989 164.917 M128.013 164.027 C 128.013 164.084,128.500 164.482,129.094 164.911 L 130.175 165.691 129.368 164.807 C 128.680 164.052,128.013 163.669,128.013 164.027 M131.338 166.750 C 131.958 167.207,132.548 167.580,132.650 167.579 C 132.964 167.577,130.859 165.943,130.526 165.930 C 130.353 165.924,130.719 166.293,131.338 166.750 M133.166 167.912 C 133.405 168.298,137.329 170.681,137.472 170.526 C 137.532 170.461,136.547 169.779,135.282 169.012 C 134.018 168.244,133.066 167.749,133.166 167.912 M263.079 170.462 C 262.294 170.935,261.719 171.389,261.800 171.471 C 261.963 171.634,264.672 169.999,264.672 169.738 C 264.672 169.505,264.648 169.516,263.079 170.462 M140.463 172.086 C 141.177 172.620,141.786 172.731,141.504 172.276 C 141.405 172.115,140.985 171.898,140.570 171.794 C 139.844 171.611,139.840 171.621,140.463 172.086 M142.311 172.845 C 142.585 173.014,143.184 173.253,143.641 173.375 C 144.219 173.530,144.320 173.504,143.973 173.290 C 143.699 173.120,143.101 172.881,142.643 172.759 C 142.066 172.605,141.964 172.631,142.311 172.845 M258.354 173.067 C 257.897 173.329,257.672 173.543,257.855 173.543 C 258.038 173.543,258.562 173.329,259.019 173.067 C 259.476 172.806,259.701 172.592,259.518 172.592 C 259.335 172.592,258.811 172.806,258.354 173.067 M144.971 173.842 C 145.245 174.012,145.844 174.251,146.301 174.373 C 146.879 174.528,146.980 174.501,146.633 174.287 C 146.359 174.118,145.761 173.879,145.303 173.757 C 144.726 173.602,144.624 173.628,144.971 173.842 M256.027 174.065 C 255.569 174.326,255.345 174.540,255.528 174.540 C 255.711 174.540,256.234 174.326,256.692 174.065 C 257.149 173.803,257.373 173.590,257.190 173.590 C 257.007 173.590,256.484 173.803,256.027 174.065 M147.814 174.861 C 147.988 175.025,148.653 175.248,149.293 175.357 L 150.457 175.555 149.293 175.085 C 147.902 174.522,147.368 174.442,147.814 174.861 M151.122 175.830 C 151.305 176.003,152.053 176.236,152.785 176.347 C 153.630 176.474,153.872 176.447,153.450 176.270 C 152.264 175.775,150.766 175.492,151.122 175.830 M250.208 176.072 C 248.891 176.528,248.889 176.531,250.042 176.341 C 250.682 176.236,251.430 176.022,251.704 175.866 C 252.436 175.448,251.729 175.546,250.208 176.072 M155.123 176.846 C 155.300 177.011,156.193 177.233,157.107 177.339 C 158.140 177.459,158.455 177.431,157.938 177.266 C 156.409 176.777,154.789 176.535,155.123 176.846 M246.218 177.063 L 244.888 177.516 246.218 177.327 C 247.621 177.128,249.028 176.564,248.047 176.594 C 247.772 176.603,246.949 176.814,246.218 177.063 M160.100 177.880 C 160.735 178.161,162.855 178.351,162.566 178.101 C 162.490 178.035,161.754 177.892,160.931 177.783 C 159.932 177.651,159.656 177.683,160.100 177.880 M242.062 177.889 C 240.925 178.128,240.921 178.134,241.895 178.154 C 242.444 178.165,243.192 178.046,243.558 177.889 C 244.357 177.545,243.694 177.545,242.062 177.889 M166.417 178.884 C 167.048 179.157,170.507 179.352,170.213 179.099 C 170.137 179.033,169.102 178.893,167.914 178.788 C 166.576 178.670,166.006 178.706,166.417 178.884 M235.245 178.886 L 233.583 179.114 235.079 179.133 C 235.902 179.144,236.949 179.033,237.406 178.886 C 238.441 178.555,237.661 178.555,235.245 178.886 M171.159 179.454 C 171.573 179.533,172.171 179.530,172.489 179.447 C 172.807 179.364,172.469 179.299,171.737 179.302 C 171.006 179.306,170.746 179.374,171.159 179.454 M231.675 179.454 C 232.088 179.533,232.687 179.530,233.005 179.447 C 233.323 179.364,232.984 179.299,232.253 179.302 C 231.521 179.306,231.261 179.374,231.675 179.454 M176.226 179.906 C 177.713 180.165,184.443 180.326,184.178 180.096 C 184.102 180.030,181.945 179.901,179.385 179.810 C 176.652 179.714,175.348 179.753,176.226 179.906 M222.943 179.884 L 219.285 180.085 222.776 180.126 C 224.697 180.148,226.941 180.047,227.764 179.901 L 229.260 179.634 227.930 179.658 C 227.199 179.672,224.954 179.773,222.943 179.884 M187.116 180.463 C 188.441 180.526,190.611 180.526,191.937 180.463 C 193.263 180.400,192.178 180.348,189.526 180.348 C 186.874 180.348,185.790 180.400,187.116 180.463 M209.244 180.464 C 211.037 180.524,213.880 180.524,215.562 180.464 C 217.244 180.403,215.777 180.354,212.303 180.355 C 208.828 180.355,207.452 180.404,209.244 180.464 M91.512 185.056 C 90.548 185.731,90.580 186.250,91.650 187.320 C 93.069 188.739,95.096 188.366,95.096 186.685 C 95.096 185.885,94.128 184.859,93.407 184.894 C 93.147 184.906,93.274 185.080,93.690 185.280 C 95.113 185.966,95.065 187.864,93.625 187.864 C 91.646 187.864,90.510 185.880,92.020 185.061 C 92.523 184.789,92.781 184.559,92.593 184.552 C 92.405 184.545,91.918 184.772,91.512 185.056 M97.844 189.132 C 97.601 189.286,97.926 189.393,98.635 189.393 C 100.616 189.393,102.198 191.786,100.919 192.848 C 99.841 193.742,97.807 192.451,97.379 190.601 L 97.169 189.692 97.130 190.588 C 97.046 192.511,99.959 194.258,101.192 193.024 C 102.730 191.487,99.693 187.957,97.844 189.132 M103.420 196.487 C 103.231 196.841,103.087 197.477,103.102 197.900 C 103.130 198.725,103.232 198.542,103.552 197.091 C 103.722 196.318,103.924 196.176,104.853 196.176 C 106.896 196.176,108.570 199.280,107.242 200.607 C 106.936 200.913,106.816 201.164,106.975 201.164 C 108.669 201.164,108.277 197.737,106.416 196.270 C 105.588 195.618,103.816 195.746,103.420 196.487 M103.408 199.145 C 103.408 199.344,103.794 199.841,104.265 200.252 C 105.205 201.070,106.564 201.698,106.232 201.159 C 106.120 200.979,105.827 200.831,105.579 200.831 C 105.332 200.831,104.742 200.371,104.269 199.808 C 103.796 199.246,103.408 198.947,103.408 199.145 M110.209 204.640 C 108.950 205.899,109.572 208.172,111.451 209.177 C 112.053 209.500,111.996 209.368,111.178 208.550 C 109.354 206.726,109.509 204.493,111.461 204.484 C 112.288 204.480,112.431 204.401,112.053 204.156 C 111.322 203.683,111.110 203.739,110.209 204.640 M113.261 205.048 C 115.319 206.802,115.209 209.169,113.051 209.565 L 112.219 209.718 113.082 209.764 C 115.545 209.893,115.672 205.962,113.244 204.781 C 112.564 204.450,112.565 204.455,113.261 205.048 M119.036 211.715 C 116.619 212.564,117.072 214.951,119.928 216.418 C 121.887 217.425,125.130 215.060,123.323 213.943 C 123.073 213.789,123.029 213.951,123.186 214.446 C 123.741 216.193,121.452 217.017,119.445 215.793 C 116.623 214.073,117.675 211.366,120.842 212.200 C 121.383 212.343,121.679 212.331,121.507 212.173 C 121.071 211.774,119.630 211.507,119.036 211.715 M152.380 212.725 C 151.687 212.838,149.958 214.539,149.958 215.110 C 149.958 215.747,151.403 217.123,152.061 217.111 C 152.646 217.100,152.577 217.008,151.704 216.628 C 149.654 215.737,150.508 213.306,152.951 213.077 C 153.591 213.017,153.890 212.886,153.616 212.787 C 153.342 212.687,152.786 212.659,152.380 212.725 M129.929 215.364 C 130.343 215.444,130.941 215.441,131.259 215.357 C 131.577 215.274,131.239 215.209,130.507 215.213 C 129.776 215.216,129.515 215.284,129.929 215.364 M128.202 216.102 C 127.883 216.454,127.693 217.015,127.779 217.348 C 127.924 217.910,127.939 217.907,127.975 217.316 C 127.996 216.965,128.261 216.404,128.564 216.069 C 128.866 215.735,129.039 215.461,128.948 215.461 C 128.856 215.461,128.521 215.749,128.202 216.102 M132.407 215.814 C 132.720 215.996,133.207 216.474,133.488 216.875 C 133.769 217.276,133.998 217.421,133.998 217.198 C 133.998 216.662,132.781 215.459,132.253 215.471 C 132.017 215.477,132.083 215.625,132.407 215.814 M140.099 215.950 C 137.878 217.505,140.168 220.551,143.093 219.933 C 145.964 219.327,146.333 215.395,143.513 215.471 C 143.309 215.477,143.441 215.645,143.807 215.845 C 146.292 217.204,145.405 219.461,142.394 219.441 C 139.399 219.421,138.458 217.056,140.981 215.890 C 141.460 215.669,141.597 215.497,141.304 215.484 C 141.025 215.471,140.482 215.681,140.099 215.950 M128.013 218.304 C 128.013 219.166,132.327 220.273,132.787 219.528 C 132.874 219.388,132.360 219.329,131.646 219.397 C 130.754 219.482,129.981 219.305,129.180 218.832 C 128.538 218.454,128.013 218.216,128.013 218.304 M197.022 252.072 C 196.803 252.679,196.624 283.620,196.841 283.403 C 197.001 283.244,197.419 252.007,197.265 251.740 C 197.223 251.668,197.114 251.817,197.022 252.072 M201.748 263.124 C 201.794 269.370,201.874 276.426,201.924 278.803 C 201.975 281.180,202.049 276.139,202.089 267.601 C 202.129 259.062,202.049 252.006,201.912 251.921 C 201.775 251.837,201.701 256.878,201.748 263.124 M177.968 268.204 C 177.925 276.640,177.804 284.046,177.700 284.663 C 177.552 285.544,177.589 285.665,177.870 285.227 C 178.116 284.844,178.200 279.699,178.138 268.769 L 178.048 252.868 177.968 268.204 M220.872 267.664 C 220.848 275.802,220.930 282.718,221.054 283.032 C 221.263 283.559,221.229 261.591,221.012 255.528 C 220.960 254.065,220.897 259.526,220.872 267.664 M226.523 261.014 C 226.517 265.312,226.610 269.277,226.729 269.825 C 226.937 270.783,226.849 255.738,226.637 254.032 C 226.580 253.574,226.529 256.717,226.523 261.014 M172.310 260.515 C 172.266 264.356,172.159 268.321,172.072 269.327 C 171.922 271.060,171.931 271.087,172.247 269.854 C 172.438 269.112,172.540 265.326,172.485 261.043 L 172.389 253.533 172.310 260.515 M244.057 260.470 C 244.057 269.252,246.297 274.927,251.119 278.361 C 251.686 278.765,251.164 278.109,249.957 276.902 C 245.715 272.660,244.277 268.314,244.450 260.265 C 244.508 257.568,244.443 255.361,244.306 255.361 C 244.169 255.361,244.057 257.660,244.057 260.470 M154.613 261.612 L 154.778 267.498 154.870 261.870 C 154.921 258.775,154.847 256.126,154.705 255.984 C 154.563 255.842,154.522 258.374,154.613 261.612 M154.167 269.101 C 154.026 269.800,153.841 270.623,153.758 270.930 C 153.674 271.237,153.841 270.983,154.128 270.366 C 154.414 269.749,154.599 268.926,154.537 268.537 C 154.459 268.046,154.347 268.217,154.167 269.101 M227.301 272.319 C 227.993 276.101,231.970 281.113,236.076 283.379 C 238.291 284.601,242.344 286.112,242.633 285.824 C 242.721 285.735,242.143 285.489,241.347 285.277 C 235.059 283.598,230.176 279.218,227.866 273.188 C 227.352 271.844,227.160 271.550,227.301 272.319 M152.932 272.697 C 152.059 274.806,148.813 277.810,145.792 279.307 C 142.988 280.696,142.159 281.258,143.881 280.604 C 148.135 278.986,154.719 272.979,153.535 271.795 C 153.446 271.706,153.175 272.112,152.932 272.697 M171.072 273.317 C 170.947 273.710,170.920 274.107,171.012 274.198 C 171.103 274.290,171.280 274.043,171.405 273.649 C 171.530 273.256,171.557 272.859,171.466 272.768 C 171.374 272.676,171.197 272.923,171.072 273.317 M170.253 275.290 C 169.832 276.077,169.812 276.408,170.201 276.168 C 170.494 275.986,170.952 274.647,170.720 274.647 C 170.653 274.647,170.442 274.936,170.253 275.290 M168.310 278.425 C 167.569 279.405,166.205 280.765,165.277 281.446 C 163.499 282.751,163.086 283.252,164.339 282.584 C 165.308 282.067,169.016 278.359,169.533 277.390 C 170.194 276.149,169.733 276.540,168.310 278.425 M252.369 279.101 C 252.369 279.388,255.070 280.701,255.264 280.508 C 255.357 280.415,254.856 280.075,254.151 279.754 C 253.445 279.433,252.756 279.113,252.618 279.042 C 252.481 278.972,252.369 278.998,252.369 279.101 M256.390 281.446 C 256.682 281.821,257.168 282.498,257.471 282.950 C 257.774 283.402,258.022 283.587,258.022 283.361 C 258.022 283.135,257.535 282.458,256.941 281.857 C 256.347 281.256,256.099 281.071,256.390 281.446 M140.839 282.579 C 139.923 284.352,140.276 285.711,141.873 286.562 C 143.097 287.214,143.139 286.993,141.944 286.190 C 140.621 285.301,140.322 284.005,141.150 282.743 C 141.452 282.281,141.623 281.828,141.531 281.736 C 141.438 281.643,141.127 282.023,140.839 282.579 M161.032 283.949 C 159.899 284.482,158.365 285.082,157.624 285.282 C 156.013 285.716,155.828 286.022,157.357 285.725 C 158.558 285.490,163.259 283.435,163.259 283.144 C 163.259 282.892,163.342 282.862,161.032 283.949 M195.877 285.486 C 195.686 286.179,195.585 286.801,195.653 286.870 C 195.722 286.938,195.957 286.450,196.176 285.786 C 196.396 285.121,196.496 284.498,196.400 284.402 C 196.304 284.306,196.068 284.794,195.877 285.486 M221.632 285.453 C 221.741 286.185,221.979 286.933,222.161 287.116 C 222.520 287.477,222.236 285.968,221.723 284.788 C 221.530 284.342,221.500 284.561,221.632 285.453 M257.582 285.087 C 257.156 286.196,255.597 286.781,252.553 286.974 L 249.543 287.165 252.302 287.223 C 255.209 287.285,256.320 286.948,257.494 285.651 C 257.843 285.266,258.048 284.870,257.950 284.772 C 257.852 284.673,257.686 284.815,257.582 285.087 M202.504 285.287 C 202.504 285.561,202.649 286.010,202.826 286.284 C 203.113 286.728,203.149 286.728,203.149 286.284 C 203.149 286.010,203.004 285.561,202.826 285.287 C 202.540 284.843,202.504 284.843,202.504 285.287 M152.286 286.472 L 150.125 286.910 152.229 286.728 C 153.386 286.628,154.732 286.425,155.221 286.277 L 156.110 286.009 155.278 286.021 C 154.821 286.028,153.475 286.230,152.286 286.472 M243.781 286.277 C 244.270 286.425,245.617 286.629,246.774 286.731 L 248.878 286.917 246.550 286.455 C 243.943 285.937,242.308 285.832,243.781 286.277 M176.962 287.499 C 176.757 288.167,176.722 288.579,176.883 288.413 C 177.208 288.080,177.713 286.284,177.482 286.284 C 177.401 286.284,177.167 286.831,176.962 287.499 M144.722 287.194 C 145.590 287.262,147.012 287.262,147.880 287.194 C 148.749 287.125,148.038 287.069,146.301 287.069 C 144.564 287.069,143.853 287.125,144.722 287.194 M203.163 287.075 C 203.156 287.574,205.127 290.837,205.725 291.316 C 206.108 291.624,206.052 291.429,205.550 290.713 C 205.143 290.132,204.440 289.010,203.988 288.220 C 203.536 287.429,203.165 286.914,203.163 287.075 M194.413 288.939 C 193.937 289.856,193.609 290.607,193.684 290.607 C 193.932 290.607,195.595 287.587,195.435 287.428 C 195.349 287.341,194.889 288.022,194.413 288.939 M222.632 288.279 C 222.946 289.398,224.339 291.309,225.402 292.079 C 226.135 292.610,226.105 292.533,225.210 291.574 C 224.628 290.950,223.758 289.767,223.276 288.944 C 222.776 288.091,222.499 287.805,222.632 288.279 M174.664 290.812 C 173.713 291.799,173.202 292.464,173.528 292.290 C 174.260 291.898,176.559 289.557,176.559 289.203 C 176.559 288.840,176.582 288.821,174.664 290.812 M192.074 292.296 C 190.878 293.629,190.554 294.158,191.164 293.781 C 191.545 293.545,193.625 290.939,193.432 290.939 C 193.356 290.939,192.745 291.550,192.074 292.296 M206.979 292.931 C 207.503 293.478,208.000 293.856,208.084 293.773 C 208.285 293.571,206.739 291.950,206.338 291.943 C 206.167 291.939,206.455 292.384,206.979 292.931 M172.029 292.856 C 169.396 294.578,169.360 299.196,171.970 300.277 C 173.675 300.983,182.904 299.834,182.088 299.017 C 181.992 298.922,181.196 299.096,180.317 299.404 C 172.875 302.008,167.473 298.484,171.637 293.741 C 172.639 292.600,172.728 292.399,172.029 292.856 M227.185 293.374 C 229.032 295.114,229.163 297.520,227.499 299.121 C 226.791 299.803,226.749 299.911,227.301 299.632 C 229.716 298.415,229.549 294.223,227.034 292.909 C 226.367 292.561,226.387 292.621,227.185 293.374 M188.744 295.248 C 187.856 295.942,186.257 296.936,185.189 297.458 C 184.122 297.979,183.300 298.457,183.363 298.519 C 183.775 298.931,190.524 294.860,190.524 294.199 C 190.524 293.844,190.585 293.808,188.744 295.248 M208.479 294.166 C 208.479 294.553,212.239 296.997,214.196 297.881 C 216.788 299.053,216.467 298.660,213.680 297.249 C 212.243 296.521,210.485 295.465,209.773 294.901 C 209.061 294.337,208.479 294.006,208.479 294.166 M216.900 298.960 C 218.099 299.658,221.975 300.581,223.607 300.559 C 226.574 300.517,226.493 300.084,223.510 300.049 C 221.451 300.024,220.048 299.808,218.651 299.301 C 216.504 298.520,215.962 298.415,216.900 298.960 " stroke="none" fill="#6d6662" fill-rule="evenodd"></path><path id="path5" d="M151.172 106.407 C 138.999 108.522,132.161 128.477,138.330 143.884 C 144.545 159.405,160.203 160.511,167.378 145.936 C 176.138 128.145,166.158 103.804,151.172 106.407 M244.389 106.427 C 231.254 109.049,224.882 130.952,232.789 146.301 C 241.336 162.893,259.492 157.930,263.366 137.942 C 266.675 120.875,256.517 104.005,244.389 106.427 M158.936 115.661 C 166.110 119.350,169.176 134.059,164.369 141.722 C 163.941 142.405,163.591 143.098,163.591 143.264 C 163.591 143.429,162.650 144.442,161.501 145.515 C 148.907 157.264,136.118 132.458,147.539 118.433 C 150.438 114.874,155.167 113.723,158.936 115.661 M247.691 115.204 C 255.148 117.835,259.143 131.078,255.167 139.983 C 253.922 142.772,253.431 143.527,251.704 145.307 C 245.603 151.597,237.655 148.578,234.061 138.606 C 232.992 135.639,232.955 127.900,233.996 124.855 C 236.624 117.166,242.171 113.256,247.691 115.204 M147.827 122.054 C 145.168 125.213,149.291 128.895,152.368 126.110 C 152.748 125.767,152.951 125.094,152.951 124.183 C 152.951 121.235,149.665 119.869,147.827 122.054 M240.076 121.721 C 239.015 122.160,238.748 122.610,238.742 123.962 C 238.731 126.237,240.540 127.476,242.438 126.494 C 245.614 124.852,243.386 120.349,240.076 121.721 " stroke="none" fill="#ffffff" fill-rule="evenodd"></path></g></svg>